<svg width="159" height="39" viewBox="0 0 159 39" fill="none" xmlns="http://www.w3.org/2000/svg"><g clip-path="url(#clip0_37_2426)"><path d="M12.42 9.08c1.573 0 2.973.34 4.197.85 1.4.51 2.449 1.36 3.323 2.38 1.05.85 1.75 2.21 2.45 3.57.524 1.36.874 2.72.874 4.25 0 1.53-.175 2.89-.874 4.25-.525 1.36-1.225 2.55-2.275 3.57-.874 1.02-2.098 1.7-3.323 2.38-1.4.51-2.799.85-4.198.85-1.224 0-2.449-.17-3.673-.68-1.225-.34-2.1-1.02-2.799-1.7V39H0V9.76h5.073l.874 1.36c.875-.68 1.75-1.36 2.799-1.53 1.05-.34 2.449-.51 3.673-.51zm-.7 16.83c.7 0 1.574-.17 2.098-.51.7-.34 1.225-.68 1.75-1.19.524-.51.874-1.19 1.224-1.87.525-.68.7-1.36.7-2.21 0-.85-.175-1.53-.525-2.21-.35-.68-.7-1.36-1.224-1.87-.525-.51-1.05-1.02-1.75-1.19-.874-.34-1.574-.51-2.274-.51s-1.574 0-2.099.34c-.7.17-1.224.51-1.749 1.02-.524.51-1.05 1.02-1.224 1.87-.175.68-.35 1.53-.35 2.72 0 1.02.175 1.87.35 2.55.175.68.7 1.36 1.224 1.87.525.51 1.05.85 1.75 1.19.524-.17 1.224 0 2.098 0zm19.94-13.26c.175-.51.7-.85 1.05-1.36.35-.34.874-.85 1.399-1.19.525-.34 1.05-.51 1.749-.85.525 0 1.4-.17 2.099-.17 1.05 0 2.1.17 3.323.51l-.524 5.1c-.35 0-.7-.17-1.05-.17-.175 0-.525 0-.874-.17h-.875c-.874 0-1.75.17-2.624.34-.874.17-1.574.68-2.099 1.02-.525.51-1.05 1.02-1.399 1.53-.35.68-.525 1.36-.525 2.04v11.05h-5.947V9.42h5.422l.875 3.23zM50.201 30.5h-5.947V9.76h5.947V30.5z" fill="#141414"/><path d="M47.227 7.379c1.933 0 3.499-1.522 3.499-3.4s-1.566-3.4-3.499-3.4c-1.932 0-3.498 1.522-3.498 3.4s1.566 3.4 3.498 3.4z" fill="#A0761E"/><path d="M62.446 25.4h9.97v5.27H54.574v-4.93l8.921-10.88H55.45V9.59h16.79v3.91l-9.795 11.9zM86.934 9.08c1.574 0 3.148.34 4.373 1.02 1.4.51 2.624 1.36 3.498 2.38 1.05 1.02 1.575 2.21 2.274 3.57.525 1.36.7 2.72.7 4.08 0 .85 0 1.7-.35 2.72H82.036c.525 1.02 1.4 1.7 2.45 2.38a6.44 6.44 0 003.498 1.02c1.224 0 2.274 0 3.323-.34.875-.17 1.75-.51 2.624-.68l1.924 3.57c-1.05.68-2.274 1.36-3.673 1.7-1.4.34-2.8.51-4.373.51-1.75 0-3.324-.34-4.898-.85-1.574-.51-2.799-1.36-3.848-2.38a13.632 13.632 0 01-2.624-3.57c-.7-1.36-1.05-2.72-1.05-4.25 0-1.53.175-2.89.875-4.25.525-1.36 1.4-2.55 2.449-3.57 1.05-1.02 2.274-1.7 3.498-2.38 1.75-.34 3.149-.68 4.723-.68zm4.898 9.35c-.35-1.19-1.05-2.21-1.924-2.89-.875-.85-1.924-1.19-3.149-1.19-1.224 0-2.274.34-3.148 1.19-.875.68-1.575 1.7-1.925 2.89h10.146z" fill="#141414"/><path d="M126.29 9.76c.7 0 1.575.17 2.449.34.875.17 1.749.68 2.449 1.36.7.68 1.399 1.53 1.924 2.72.525 1.19.7 2.55.7 4.25v12.24h-5.947V19.62c0-.85 0-1.53-.175-2.21-.175-.51-.35-1.02-.7-1.36-.35-.34-.7-.68-1.049-.85-.35-.17-.875-.17-1.225-.17-.35 0-.874 0-1.224.17s-.7.34-1.05.68c-.35.34-.525.85-.7 1.36-.174.51-.174 1.36-.174 2.21V30.5h-5.948V19.28c0-1.7-.349-2.89-.874-3.57-.525-.68-1.574-1.02-2.624-1.02-.874 0-1.574.34-2.274 1.19-.7.68-1.049 1.87-1.049 3.57V30.5h-5.947V9.59h5.072l.525 2.04c.699-.68 1.399-1.19 2.274-1.36.874-.34 1.749-.51 2.798-.51.525 0 1.05 0 1.575.17.524 0 1.224.17 1.574.51.525.17 1.049.51 1.574 1.02.525.34 1.05 1.02 1.4 1.53.349-.51.699-1.02 1.224-1.36l1.574-1.02c.525-.17 1.225-.51 1.749-.51.875-.34 1.4-.34 2.099-.34zm22.04-.68c1.574 0 3.149.34 4.373 1.02 1.399.68 2.449 1.36 3.323 2.55 1.05 1.02 1.575 2.21 2.274 3.57.525 1.36.7 2.72.7 4.08 0 .85 0 1.7-.35 2.72h-15.218c.525 1.02 1.4 1.7 2.449 2.38a6.442 6.442 0 003.499 1.02c1.224 0 2.273 0 3.323-.34.874-.17 1.749-.51 2.624-.68l1.924 3.57c-1.05.68-2.274 1.36-3.674 1.7-1.399.34-2.798.51-4.372.51-1.75 0-3.324-.34-4.898-.85-1.574-.51-2.799-1.36-3.848-2.38a13.625 13.625 0 01-2.624-3.57c-.7-1.36-1.05-2.72-1.05-4.25 0-1.53.175-2.89.875-4.25.525-1.36 1.399-2.55 2.449-3.57 1.049-1.02 2.274-1.7 3.498-2.38 1.749-.51 3.149-.85 4.723-.85zm4.898 9.35c-.35-1.19-1.05-2.21-1.924-2.89-.875-.85-1.924-1.19-3.149-1.19-1.224 0-2.099.34-2.974 1.02-.874.68-1.574 1.7-1.924 2.89h9.971v.17z" fill="#A0761E"/><g clip-path="url(#clip1_37_2426)"><path d="M12.43 10.191c1.533 0 2.959.28 4.26.838 1.3.559 2.428 1.32 3.364 2.281a10.435 10.435 0 012.213 3.376c.538 1.288.804 2.669.804 4.127 0 1.459-.266 2.84-.804 4.128a10.712 10.712 0 01-2.213 3.375 10.415 10.415 0 01-3.364 2.281c-1.301.559-2.727.83-4.26.83-1.243 0-2.46-.209-3.654-.628-1.185-.419-2.113-.954-2.785-1.606V39H0V10.766h5.13l.87 1.38a7.51 7.51 0 012.826-1.505c1.035-.294 2.237-.45 3.604-.45zm-.787 16.24c.779 0 1.516-.148 2.196-.45a5.734 5.734 0 001.782-1.203 5.95 5.95 0 001.218-1.769 5.26 5.26 0 00.456-2.196c0-.76-.15-1.482-.456-2.18a5.772 5.772 0 00-1.218-1.792 5.871 5.871 0 00-1.782-1.203 5.452 5.452 0 00-2.196-.45c-.779 0-1.517.101-2.196.303a4.625 4.625 0 00-1.782.977c-.505.45-.903 1.032-1.193 1.746-.29.722-.43 1.583-.43 2.584 0 .946.14 1.769.43 2.46a5.02 5.02 0 001.193 1.745c.506.474 1.103.83 1.782 1.055a6.228 6.228 0 002.196.373zm19.905-12.857a8.92 8.92 0 011.003-1.241 6.179 6.179 0 011.35-1.056 7.392 7.392 0 011.782-.752 8.365 8.365 0 012.263-.287c.986 0 2.13.163 3.43.489l-.563 5.004a13.88 13.88 0 01-.953-.202c-.265-.054-.555-.1-.87-.14a7.323 7.323 0 00-.87-.061 8.92 8.92 0 00-2.586.364 6.591 6.591 0 00-2.063 1.017 5.071 5.071 0 00-1.392 1.567 3.913 3.913 0 00-.523 1.97v10.7h-6v-20.18h5.429l.563 2.808zM50.06 30.947h-5.999V10.766h6v20.18zm12.257-5.005h9.953v5.005H54.453v-4.718L63.32 15.77h-8.038v-5.004h16.73v3.732l-9.695 11.444zm24.504-15.751c1.625 0 3.1.303 4.434.916s2.478 1.412 3.43 2.398a10.838 10.838 0 012.221 3.421c.523 1.288.78 2.615.78 3.965 0 .815-.117 1.684-.349 2.607h-15.38c.58.923 1.409 1.7 2.478 2.343a6.684 6.684 0 003.48.954c1.243 0 2.337-.093 3.282-.287a19.495 19.495 0 002.668-.729l1.997 3.46c-1.069.707-2.295 1.25-3.67 1.63-1.376.38-2.843.566-4.41.566-1.706 0-3.297-.279-4.78-.83-1.476-.558-2.769-1.311-3.87-2.258a10.475 10.475 0 01-2.611-3.375 9.307 9.307 0 01-.953-4.15c0-1.436.29-2.802.87-4.09a10.465 10.465 0 012.412-3.375 11.808 11.808 0 013.588-2.297c1.359-.582 2.817-.869 4.383-.869zm4.915 8.954c-.349-1.164-.97-2.118-1.873-2.847-.904-.73-1.915-1.102-3.042-1.102-1.16 0-2.212.365-3.149 1.102-.944.729-1.582 1.683-1.93 2.847h9.993z" fill="#fff"/><path d="M126.018 10.766c.779 0 1.625.124 2.52.364s1.731.675 2.494 1.304c.771.62 1.4 1.482 1.889 2.56.489 1.086.738 2.468.738 4.151v11.802h-6V20.193c0-.815-.091-1.498-.282-2.072-.19-.566-.439-1.024-.762-1.381a2.735 2.735 0 00-1.11-.753 3.862 3.862 0 00-1.285-.225c-.406 0-.812.07-1.218.202a2.637 2.637 0 00-1.086.69c-.315.326-.571.769-.762 1.343-.191.566-.282 1.288-.282 2.15v10.8h-6V20.193c0-1.653-.306-2.801-.911-3.453-.605-.652-1.492-.978-2.652-.978-.837 0-1.591.365-2.262 1.094-.663.73-1.003 1.87-1.003 3.406v10.684h-6v-20.18h5.13l.87 1.885c.663-.605 1.442-1.063 2.32-1.397a8.183 8.183 0 012.851-.496 9.58 9.58 0 011.649.147c.58.093 1.144.264 1.691.512a7.793 7.793 0 011.583.962 6.44 6.44 0 011.367 1.498c.348-.52.771-.978 1.259-1.373a7.44 7.44 0 011.608-.986 8.534 8.534 0 011.807-.574 10.557 10.557 0 011.839-.178zm22.118-.575c1.624 0 3.099.303 4.433.916 1.335.613 2.478 1.412 3.431 2.398a10.701 10.701 0 012.213 3.421 10.48 10.48 0 01.779 3.965c0 .815-.116 1.684-.348 2.607h-15.381c.58.923 1.409 1.7 2.478 2.343a6.684 6.684 0 003.481.954c1.243 0 2.336-.093 3.281-.287a19.596 19.596 0 002.677-.729l1.997 3.46c-1.069.707-2.296 1.25-3.671 1.63-1.376.38-2.843.566-4.409.566-1.707 0-3.306-.279-4.781-.83-1.475-.558-2.768-1.311-3.87-2.258a10.479 10.479 0 01-2.611-3.375 9.308 9.308 0 01-.953-4.15c0-1.436.29-2.802.871-4.09a10.456 10.456 0 012.411-3.375 11.818 11.818 0 013.588-2.297c1.359-.582 2.826-.869 4.384-.869zm4.914 8.954c-.348-1.164-.97-2.118-1.873-2.847-.903-.73-1.914-1.102-3.041-1.102-1.16 0-2.213.365-3.149 1.102a5.57 5.57 0 00-1.931 2.847h9.994zM47.061 7.996c-.928 0-1.707-.295-2.345-.893a2.884 2.884 0 01-.953-2.195c0-.87.315-1.607.953-2.22.638-.612 1.417-.915 2.345-.915.928 0 1.707.303 2.345.915.638.613.953 1.35.953 2.22 0 .869-.315 1.598-.953 2.195-.638.598-1.417.893-2.345.893z" fill="#FF9A00"/></g></g><defs><clipPath id="clip0_37_2426"><path fill="#fff" d="M0 0h159v39H0z"/></clipPath><clipPath id="clip1_37_2426"><path fill="#fff" transform="translate(0 1.773)" d="M0 0h159v37.227H0z"/></clipPath></defs></svg>